name C:\Users\antoi\Documents\MyRepositories\upper-imu-dc\Results\main_tracking\Case_75\kinematics.mot
datacolumns 43
datarows 6
range 0.50000000 0.60000000
endheader 
time	clav_prot	clav_elev	scapula_abduction	scapula_elevation	scapula_upward_rot	scapula_winging	plane_elv	shoulder_elv	axial_rot	TrapeziusScapula_M/activation	TrapeziusScapula_S/activation	TrapeziusScapula_I/activation	TrapeziusClavicle_S/activation	SerratusAnterior_I/activation	SerratusAnterior_M/activation	SerratusAnterior_S/activation	Rhomboideus_S/activation	Rhomboideus_I/activation	LevatorScapulae/activation	Coracobrachialis/activation	DeltoideusClavicle_A/activation	DeltoideusScapula_P/activation	DeltoideusScapula_M/activation	LatissimusDorsi_S/activation	LatissimusDorsi_M/activation	LatissimusDorsi_I/activation	PectoralisMajorClavicle_S/activation	PectoralisMajorThorax_I/activation	PectoralisMajorThorax_M/activation	TeresMajor/activation	Infraspinatus_I/activation	Infraspinatus_S/activation	PectoralisMinor/activation	TeresMinor/activation	Subscapularis_S/activation	Subscapularis_M/activation	Subscapularis_I/activation	Supraspinatus_P/activation	Supraspinatus_A/activation	TRIlong/activation	BIC_long/activation	BIC_brevis/activation	
          0.50000000	        -23.88243161	         -6.04219639	        -15.30577412	         -2.77213041	          8.08416088	          6.66969532	        -31.26483890	         14.26392074	         45.61066788	          0.01000000	          0.01000000	          0.01000000	          0.01518353	          0.01000000	          0.03855108	          0.01000000	          0.01000000	          0.01784046	          0.04373344	          0.01000000	          0.01000000	          0.01000000	          0.01000000	          0.01000000	          0.01000000	          0.01000000	          0.01000000	          0.01000000	          0.01000000	          0.01000000	          0.01000000	          0.01000000	          0.01000000	          0.01000000	          0.01000000	          0.01000000	          0.01000000	          0.01000000	          0.01000000	          0.01000000	          0.01000000	          0.01000000	
          0.52000000	        -23.88742537	         -4.72866610	        -17.11090175	         -3.23725606	          8.57357055	          6.67128659	        -29.64219502	         14.37067877	         44.51202416	          0.01000000	          0.01755248	          0.01000000	          0.02580164	          0.02277747	          0.03914571	          0.01590379	          0.01819365	          0.01561027	          0.03280008	          0.01879276	          0.02026984	          0.01216159	          0.02044209	          0.01063659	          0.01000000	          0.01450053	          0.02336507	          0.01075652	          0.02400059	          0.01360305	          0.01883346	          0.01618761	          0.01000000	          0.01815769	          0.02110587	          0.01974446	          0.01971289	          0.01780071	          0.01952141	          0.01000006	          0.02590792	          0.01716264	
          0.54000000	        -23.88738476	         -5.10499684	        -16.79087901	         -3.64746375	          8.99593041	          6.68430995	        -28.02795673	         14.46043793	         43.41234738	          0.01000000	          0.01894593	          0.01000000	          0.02438455	          0.02475372	          0.03702234	          0.01699661	          0.01817114	          0.01830871	          0.02806123	          0.01822842	          0.02101745	          0.01000000	          0.01870694	          0.01231652	          0.01142870	          0.01576887	          0.02396442	          0.01217645	          0.02524684	          0.01027515	          0.01533929	          0.01564433	          0.01000000	          0.01555897	          0.01781635	          0.01633690	          0.01478467	          0.01766718	          0.02023956	          0.01000000	          0.02217988	          0.01960610	
          0.56000000	        -23.88184595	         -5.44468475	        -16.50431246	         -4.01060705	          9.35612057	          6.70732275	        -26.40954406	         14.52626900	         42.31986943	          0.01000000	          0.02211207	          0.01000000	          0.02482811	          0.02672755	          0.03711386	          0.01679445	          0.01839302	          0.01584851	          0.02648753	          0.01936567	          0.02495817	          0.01000000	          0.02165645	          0.01274658	          0.01166929	          0.01620566	          0.02659550	          0.01341413	          0.02735480	          0.01000000	          0.01497248	          0.01731773	          0.01000000	          0.01600360	          0.01862504	          0.01646952	          0.01380386	          0.01919276	          0.02317559	          0.01000000	          0.02596728	          0.02159349	
          0.58000000	        -23.86557783	         -5.74111650	        -16.24132890	         -4.32293777	          9.65882628	          6.73479354	        -24.75615819	         14.56627745	         41.22929586	          0.01024094	          0.02572062	          0.01000000	          0.02531100	          0.02969534	          0.03813012	          0.01675062	          0.01818620	          0.01392388	          0.02450323	          0.01971496	          0.02861408	          0.01000000	          0.02641621	          0.01272968	          0.01150016	          0.01629639	          0.02902967	          0.01417812	          0.02947258	          0.01000000	          0.01511440	          0.01797559	          0.01000000	          0.01560860	          0.01885390	          0.01610898	          0.01223237	          0.02015866	          0.02583044	          0.01000000	          0.03001505	          0.02250590	
          0.60000000	        -23.83971838	         -5.99564802	        -15.99829914	         -4.58850735	          9.91355644	          6.76290123	        -23.04065121	         14.58995458	         40.12814401	          0.01191178	          0.02918754	          0.01000000	          0.02596738	          0.03309118	          0.03988019	          0.01645902	          0.01793622	          0.01185529	          0.02310570	          0.02005484	          0.03303995	          0.01000000	          0.03146498	          0.01245958	          0.01108556	          0.01628341	          0.03199741	          0.01480675	          0.03223727	          0.01000000	          0.01519183	          0.01889590	          0.01000000	          0.01514834	          0.01898550	          0.01554296	          0.01022367	          0.02124424	          0.02885813	          0.01000000	          0.03477282	          0.02355182	
